<?xml version="1.0" standalone="no"?>
<!DOCTYPE svg PUBLIC "-//W3C//DTD SVG 20010904//EN"
 "http://www.w3.org/TR/2001/REC-SVG-20010904/DTD/svg10.dtd">
<svg version="1.0" xmlns="http://www.w3.org/2000/svg"
 width="1000.000000pt" height="1000.000000pt" viewBox="0 0 1000.000000 1000.000000"
 preserveAspectRatio="xMidYMid meet">
<metadata>
Created by potrace 1.14, written by Peter Selinger 2001-2017
</metadata>
<g transform="translate(0.000000,1000.000000) scale(0.100000,-0.100000)"
fill="#000000" stroke="none">
<path d="M3267 9993 c-2 -5 -3 -80 -3 -168 l1 -160 30 0 c17 0 36 -4 43 -8 6
-5 12 -5 12 0 0 4 176 8 390 8 215 0 390 -4 390 -9 0 -5 6 -4 13 1 19 14 52
10 53 -7 1 -8 3 -17 4 -20 1 -3 1 -23 1 -45 -1 -22 -1 -51 -1 -65 0 -39 -1
-72 -3 -113 -1 -20 0 -37 3 -37 3 0 5 -13 6 -30 1 -16 -2 -28 -5 -26 -3 2 -6
-11 -6 -30 0 -19 3 -34 6 -34 4 0 3 -18 -1 -40 -4 -22 -5 -40 -1 -40 3 0 6
-22 6 -49 0 -27 -2 -48 -5 -46 -7 4 -5 -49 3 -61 3 -6 2 -26 -2 -45 -4 -18 -4
-46 0 -61 4 -16 3 -30 -2 -34 -6 -4 -6 -10 0 -18 6 -7 7 -26 2 -46 -4 -19 -4
-47 0 -62 4 -16 3 -30 -2 -34 -6 -4 -6 -10 0 -18 6 -7 7 -26 2 -46 -4 -19 -4
-47 0 -62 4 -16 3 -30 -2 -34 -6 -4 -6 -10 0 -18 6 -7 7 -26 2 -46 -4 -19 -4
-46 -1 -60 4 -14 3 -33 -2 -42 -5 -10 -5 -18 -1 -18 4 0 8 -22 8 -49 0 -27 -2
-48 -5 -46 -6 4 -5 -10 4 -87 2 -21 1 -36 -2 -34 -4 2 -7 -11 -7 -30 0 -19 2
-34 5 -34 3 0 5 -13 6 -30 1 -16 -2 -28 -5 -25 -7 4 -6 -9 3 -87 2 -21 1 -36
-2 -34 -4 2 -7 -11 -7 -30 0 -19 2 -34 5 -34 3 0 5 -13 6 -30 1 -16 -2 -28 -5
-26 -8 5 -6 -47 2 -60 3 -6 2 -26 -2 -45 -4 -18 -4 -46 0 -61 4 -16 3 -30 -2
-34 -6 -4 -6 -11 1 -19 7 -8 9 -18 6 -24 -3 -5 -6 -29 -6 -53 0 -116 0 -118
-50 -112 -16 2 -32 -1 -35 -6 -3 -6 -11 -10 -16 -10 -6 0 -7 5 -3 12 5 7 3 8
-6 3 -14 -8 -45 -14 -93 -17 -15 0 -30 -4 -32 -8 -2 -3 -20 -6 -39 -5 -20 1
-36 -1 -36 -4 0 -3 -21 -7 -47 -8 -27 -2 -49 -6 -51 -11 -1 -4 -16 -7 -32 -6
-17 1 -30 -1 -30 -5 0 -4 -17 -8 -37 -9 -20 -1 -39 -5 -42 -9 -3 -5 -19 -9
-36 -10 -16 -2 -31 -7 -33 -13 -3 -7 -8 -7 -18 1 -8 6 -14 7 -14 2 0 -5 -6
-10 -12 -11 -22 -3 -63 -10 -68 -12 -3 -1 -8 -2 -12 -1 -5 0 -8 -3 -8 -9 0 -5
-13 -10 -30 -10 -16 0 -30 -4 -30 -8 0 -4 -8 -8 -17 -9 -43 -5 -83 -16 -83
-24 0 -4 -9 -6 -20 -4 -11 2 -20 0 -20 -6 0 -5 -9 -9 -20 -9 -11 0 -20 -4 -20
-9 0 -6 -9 -8 -20 -6 -12 2 -23 -2 -26 -9 -3 -7 -16 -12 -30 -10 -13 1 -24 -2
-24 -6 0 -5 -10 -12 -22 -16 -13 -4 -23 -6 -23 -4 0 2 -11 -3 -25 -10 -14 -8
-28 -13 -32 -12 -5 1 -8 -3 -8 -8 0 -6 -6 -10 -12 -8 -7 1 -23 -3 -35 -10 -13
-7 -23 -9 -23 -5 0 4 -7 -1 -15 -11 -8 -11 -15 -17 -15 -14 0 4 -12 1 -27 -7
-15 -8 -30 -12 -35 -9 -4 3 -8 1 -8 -5 0 -6 -10 -15 -21 -22 -17 -9 -20 -8
-13 3 4 7 -1 5 -12 -4 -11 -10 -36 -24 -57 -33 -20 -8 -37 -20 -37 -26 0 -6
-7 -9 -15 -5 -8 3 -15 1 -15 -5 0 -6 -4 -7 -10 -4 -5 3 -10 2 -10 -3 0 -5 -15
-15 -32 -23 -18 -7 -36 -17 -40 -23 -3 -5 -15 -11 -25 -12 -9 -2 -19 -8 -21
-13 -2 -6 -10 -11 -18 -11 -8 0 -14 -4 -14 -10 0 -5 -4 -10 -10 -10 -5 0 -26
-11 -46 -25 -20 -14 -40 -22 -45 -19 -5 3 -8 2 -7 -3 2 -4 0 -9 -5 -10 -4 -2
-20 -14 -35 -28 -15 -14 -37 -28 -49 -31 -13 -4 -21 -10 -18 -14 3 -5 -4 -11
-15 -15 -11 -3 -20 -11 -20 -16 0 -5 -6 -9 -14 -9 -8 0 -17 -7 -20 -16 -4 -9
-9 -14 -12 -11 -3 3 -18 -5 -32 -18 -15 -14 -47 -42 -72 -64 -25 -22 -51 -41
-58 -41 -7 0 -10 -4 -7 -10 3 -5 2 -10 -3 -10 -13 0 -262 -248 -262 -260 0 -6
-7 -10 -15 -10 -8 0 -14 -4 -12 -8 2 -8 -20 -35 -120 -150 -18 -20 -33 -40
-33 -44 0 -3 -12 -20 -26 -37 -14 -17 -23 -31 -20 -31 3 0 -2 -8 -12 -18 -22
-24 -45 -58 -44 -66 1 -3 -10 -17 -23 -32 -14 -15 -22 -30 -19 -35 3 -5 0 -9
-6 -9 -6 0 -13 -8 -17 -17 -3 -10 -12 -25 -19 -33 -7 -8 -14 -22 -16 -30 -2
-8 -12 -23 -22 -32 -10 -10 -16 -18 -13 -18 3 0 -25 -61 -62 -134 -38 -74 -77
-157 -87 -185 -9 -27 -22 -47 -27 -44 -6 3 -7 1 -4 -5 4 -5 -2 -31 -13 -57
-11 -25 -22 -58 -24 -72 -3 -13 -10 -31 -17 -39 -6 -7 -9 -21 -5 -29 3 -9 2
-13 -4 -10 -6 3 -11 -2 -12 -12 -3 -47 -19 -84 -32 -76 -6 4 -5 0 2 -9 9 -12
10 -18 2 -23 -6 -4 -9 -13 -6 -21 3 -8 1 -14 -5 -14 -6 0 -7 -4 -4 -10 3 -6 2
-10 -2 -10 -5 0 -10 -12 -11 -26 -1 -15 -7 -33 -13 -40 -6 -7 -8 -18 -4 -24 4
-6 2 -16 -3 -23 -5 -7 -8 -20 -7 -29 2 -10 -1 -18 -6 -18 -5 0 -9 -18 -9 -40
0 -22 -4 -40 -8 -40 -5 0 -8 -10 -7 -22 1 -13 -2 -29 -8 -35 -5 -7 -6 -13 -1
-13 5 0 2 -5 -6 -10 -11 -7 -11 -10 -2 -10 7 0 10 -5 7 -10 -4 -6 -9 -25 -12
-43 -9 -62 -11 -72 -13 -72 -1 0 -3 -11 -4 -25 0 -14 -4 -29 -7 -35 -4 -5 -5
-19 -3 -29 1 -11 -2 -28 -7 -38 -7 -13 -6 -18 2 -18 8 0 8 -4 2 -12 -10 -13
-13 -27 -13 -85 0 -18 -6 -33 -12 -33 -7 0 -7 -4 1 -13 6 -8 8 -17 4 -21 -11
-11 -16 -139 -16 -416 -1 -213 6 -415 13 -415 1 0 3 -12 5 -28 2 -18 0 -25 -7
-21 -7 5 -8 2 -2 -7 10 -16 12 -29 16 -82 1 -20 6 -37 10 -37 5 0 4 -9 -2 -19
-7 -14 -7 -22 0 -26 6 -4 8 -11 5 -16 -4 -5 0 -9 7 -9 10 0 9 -3 -1 -9 -12 -8
-12 -12 -2 -25 7 -9 11 -22 8 -31 -4 -8 -2 -17 3 -20 5 -3 10 -16 10 -28 -1
-38 5 -76 13 -83 11 -12 8 -26 -4 -18 -6 3 -4 -4 4 -17 8 -13 13 -32 12 -41
-2 -10 0 -18 4 -18 5 0 8 -14 9 -32 0 -17 4 -34 9 -37 10 -8 10 -32 -1 -50 -6
-9 -5 -12 1 -8 14 9 26 -19 26 -61 1 -17 5 -32 10 -32 5 0 7 -9 4 -21 -3 -12
-3 -18 1 -15 3 4 12 -17 19 -46 8 -29 17 -55 21 -58 4 -3 8 -11 10 -18 1 -7 4
-20 6 -30 1 -9 6 -25 10 -34 4 -9 9 -22 10 -30 1 -7 10 -30 19 -52 9 -21 15
-42 12 -46 -3 -5 -1 -10 5 -12 5 -1 18 -26 28 -55 10 -28 24 -58 31 -67 8 -9
10 -16 5 -16 -4 0 -3 -5 4 -12 7 -7 12 -20 12 -30 0 -10 5 -18 10 -18 6 0 10
-9 10 -20 0 -11 5 -20 11 -20 5 0 7 -4 4 -10 -3 -5 -1 -10 4 -10 6 0 11 -3 10
-8 -2 -15 14 -52 22 -52 5 0 9 -9 9 -20 0 -11 5 -20 10 -20 6 0 10 -7 10 -15
0 -8 4 -15 10 -15 5 0 7 -7 4 -15 -4 -8 -1 -15 6 -15 7 0 10 -7 7 -14 -4 -10
-1 -13 7 -10 7 3 13 -1 13 -9 0 -15 115 -199 147 -235 10 -12 16 -22 12 -22
-5 0 2 -9 15 -20 13 -10 20 -19 16 -20 -4 0 6 -15 22 -33 17 -17 31 -35 31
-39 0 -3 15 -22 34 -41 19 -20 32 -38 29 -41 -3 -3 2 -8 11 -12 9 -3 16 -10
16 -14 0 -5 18 -27 41 -49 25 -24 38 -44 33 -52 -4 -7 -3 -10 4 -5 11 7 62
-38 62 -54 0 -6 6 -10 14 -10 8 0 18 -9 21 -20 4 -11 9 -19 13 -17 10 4 61
-51 54 -57 -3 -4 1 -6 9 -6 8 0 26 -13 39 -30 14 -16 28 -29 31 -30 6 0 64
-48 106 -88 13 -12 28 -22 33 -22 6 0 10 -8 10 -17 0 -15 2 -16 10 -3 6 10 10
11 10 3 0 -7 18 -24 40 -38 23 -14 38 -30 35 -35 -3 -5 4 -7 15 -5 13 2 20 -1
20 -11 0 -8 4 -12 10 -9 5 3 10 1 10 -4 0 -6 5 -11 10 -11 6 0 20 -9 32 -20
12 -10 24 -17 28 -15 5 3 10 -2 14 -10 3 -8 12 -15 21 -15 8 0 15 -4 15 -10 0
-5 7 -10 15 -10 8 0 15 -4 15 -10 0 -5 7 -10 15 -10 8 0 15 -5 15 -12 0 -6 3
-9 6 -6 5 6 60 -26 91 -52 7 -5 18 -10 25 -10 20 -1 49 -26 40 -35 -4 -5 -1
-5 5 -1 7 4 23 0 35 -8 12 -9 30 -16 40 -16 10 0 18 -4 18 -10 0 -5 7 -10 16
-10 8 0 13 -4 10 -9 -4 -5 2 -7 12 -4 10 2 24 -3 31 -11 8 -9 22 -16 32 -16
11 0 19 -4 19 -10 0 -5 7 -10 15 -10 8 0 31 -9 50 -20 20 -11 40 -18 45 -15 4
3 10 0 12 -7 4 -10 18 -15 60 -20 9 -1 14 -6 12 -10 -3 -4 1 -8 8 -8 7 0 26
-7 42 -15 15 -8 32 -12 37 -9 5 3 9 0 9 -6 0 -6 4 -9 9 -5 5 3 15 0 23 -7 12
-12 31 -18 71 -21 9 -1 17 -5 17 -9 0 -4 9 -8 21 -8 11 0 18 -3 16 -7 -3 -5 6
-9 19 -10 55 -6 64 -8 64 -15 0 -4 14 -8 31 -8 17 0 28 -4 24 -10 -3 -5 0 -7
8 -4 8 3 22 -2 31 -11 9 -9 16 -12 16 -6 0 5 9 9 20 8 11 -1 20 -5 20 -10 0
-4 5 -5 10 -2 6 3 10 1 10 -5 0 -6 5 -8 10 -5 6 4 17 2 24 -4 8 -7 18 -11 22
-10 23 4 65 -2 61 -8 -3 -5 16 -9 41 -10 25 -1 53 -5 61 -9 9 -4 30 -8 46 -9
17 -2 30 -4 30 -5 0 -3 20 -6 80 -14 22 -2 51 -9 65 -14 14 -5 35 -6 48 -1 12
5 22 5 22 0 0 -9 3 -9 85 -14 33 -2 65 -6 70 -9 15 -9 568 -4 583 5 7 5 12 4
12 -3 0 -6 5 -8 11 -5 5 4 40 9 77 11 72 4 106 9 122 19 6 3 10 1 10 -5 0 -6
5 -8 13 -3 11 7 24 9 90 12 16 0 26 4 24 9 -3 4 17 7 44 6 27 0 49 2 49 6 0 4
14 6 30 5 17 -1 30 3 30 8 0 5 6 5 13 -2 8 -6 17 -7 23 -2 5 5 23 12 39 15 58
10 90 17 94 22 2 2 11 -2 19 -9 13 -9 14 -9 8 1 -4 6 -4 12 1 13 4 1 22 3 38
5 17 2 36 5 43 6 6 1 12 4 12 8 0 4 14 6 30 5 17 -1 30 1 30 5 0 4 6 7 13 8 6
0 23 3 37 7 14 3 34 8 45 9 11 2 20 4 20 5 0 4 40 12 58 12 9 0 17 4 17 8 0 4
6 8 13 8 6 0 45 10 85 22 40 13 78 24 85 25 19 4 50 16 71 27 14 8 16 8 10 -3
-6 -10 -4 -10 9 1 9 7 17 10 17 7 0 -4 7 -1 15 8 9 8 22 13 30 10 8 -4 15 -1
15 6 0 6 6 10 13 7 6 -2 24 2 38 9 15 7 29 10 32 7 4 -3 9 1 12 9 4 10 14 14
26 11 10 -3 19 -1 19 4 0 9 13 13 53 14 9 0 15 4 12 9 -4 7 6 11 58 25 4 2 10
4 15 5 4 1 10 2 15 1 4 0 7 4 7 10 0 6 7 9 15 5 8 -3 15 -2 15 2 0 9 70 37 83
34 4 -1 7 3 7 9 0 5 4 8 9 5 5 -4 11 -3 13 2 6 14 99 53 110 46 7 -4 8 -3 4 4
-4 7 -1 12 8 12 9 0 16 4 16 10 0 5 6 7 14 4 7 -3 16 2 20 11 3 9 10 13 16 10
5 -3 10 -2 10 3 0 5 11 14 24 20 l24 11 -1 -110 c-1 -60 2 -109 7 -109 4 0 6
-9 3 -20 -3 -11 -1 -20 3 -20 5 0 7 -9 5 -19 -2 -11 3 -27 10 -38 8 -10 15
-25 15 -34 0 -8 9 -25 20 -37 12 -12 18 -22 14 -22 -12 0 61 -60 81 -66 11 -4
23 -11 26 -16 3 -5 21 -12 40 -15 19 -3 41 -9 50 -14 9 -4 19 -5 23 -1 4 3 11
0 16 -8 8 -12 10 -12 10 -1 0 11 3 11 15 1 12 -10 15 -10 15 0 0 8 4 9 13 4 6
-5 21 -9 32 -9 20 0 20 7 20 1155 l0 1155 -193 0 c-106 0 -196 -2 -200 -5 -8
-5 -14 -27 -15 -47 0 -7 -3 -13 -7 -13 -3 0 -7 -8 -8 -17 -2 -24 -8 -45 -15
-63 -4 -8 -8 -25 -10 -37 -2 -12 -6 -26 -10 -29 -4 -4 -7 -16 -7 -26 0 -10 -4
-18 -9 -18 -5 0 -8 -8 -7 -18 2 -9 -5 -37 -16 -60 -10 -24 -16 -48 -13 -52 3
-5 1 -10 -5 -12 -6 -2 -12 -14 -15 -27 -2 -12 -9 -29 -16 -37 -6 -8 -9 -14 -5
-14 4 0 0 -13 -9 -30 -9 -16 -13 -30 -9 -30 3 0 -1 -11 -10 -25 -9 -13 -16
-31 -16 -40 0 -8 -5 -15 -12 -15 -6 0 -8 -3 -5 -7 4 -3 1 -13 -5 -21 -7 -8
-13 -21 -14 -29 -4 -28 -14 -44 -23 -39 -4 3 -7 -6 -5 -19 1 -14 -1 -25 -4
-25 -4 0 -16 -19 -27 -43 -11 -23 -23 -45 -28 -48 -5 -3 -9 -13 -11 -21 -1 -9
-6 -22 -12 -29 -5 -8 -19 -31 -29 -51 -11 -21 -23 -38 -26 -38 -4 0 -10 -11
-13 -25 -4 -17 -11 -23 -19 -19 -7 4 -9 4 -5 -1 7 -7 -40 -83 -69 -113 -7 -7
-13 -17 -13 -20 0 -4 -16 -25 -35 -47 -19 -22 -37 -48 -41 -58 -3 -9 -10 -15
-15 -12 -5 4 -9 1 -9 -5 0 -6 -52 -63 -115 -126 -63 -64 -115 -112 -115 -107
0 4 -11 -5 -24 -20 -15 -18 -30 -26 -37 -21 -7 4 -9 3 -6 -3 3 -5 -7 -17 -24
-27 -16 -9 -29 -21 -29 -25 0 -5 -13 -14 -30 -21 -16 -7 -27 -17 -23 -23 3 -5
1 -7 -5 -3 -6 3 -18 -1 -26 -10 -9 -8 -16 -12 -16 -8 0 4 -8 -1 -18 -12 -10
-11 -38 -28 -63 -39 -24 -11 -50 -25 -57 -32 -7 -7 -22 -13 -33 -13 -10 0 -19
-4 -19 -10 0 -5 -5 -10 -11 -10 -5 0 -36 -12 -67 -27 -31 -14 -62 -26 -69 -26
-7 0 -13 -4 -13 -8 0 -4 -18 -10 -40 -14 -22 -4 -40 -10 -40 -14 0 -6 -17 -10
-57 -13 -7 -1 -13 -5 -13 -9 0 -5 -7 -6 -15 -3 -8 4 -15 2 -15 -4 0 -6 -8 -9
-17 -7 -10 1 -22 -1 -28 -5 -5 -5 -26 -10 -45 -12 -19 -1 -37 -6 -40 -10 -3
-3 -28 -9 -55 -11 -28 -3 -50 -6 -50 -7 0 -3 -64 -10 -87 -11 -10 0 -20 -4
-23 -10 -4 -5 -13 -5 -24 1 -10 5 -21 6 -25 3 -12 -12 -36 -12 -36 0 0 8 -3 8
-9 -1 -4 -7 -12 -12 -17 -11 -5 1 -11 0 -14 -1 -3 -1 -76 -3 -162 -4 -103 -1
-158 2 -158 9 0 5 -4 4 -9 -4 -8 -12 -12 -12 -25 -2 -11 10 -16 10 -16 2 0 -8
-5 -9 -19 -2 -10 6 -21 8 -24 5 -3 -3 -11 -2 -18 2 -7 4 -29 8 -49 9 -19 0
-41 4 -49 9 -10 7 -12 6 -6 -4 6 -10 4 -11 -6 -4 -8 5 -27 9 -44 10 -16 1 -37
4 -45 8 -8 3 -24 7 -35 9 -11 1 -26 7 -34 11 -11 7 -12 6 -6 -5 8 -12 6 -12
-8 0 -9 7 -17 10 -17 6 0 -4 -7 -2 -15 5 -8 6 -19 9 -24 6 -5 -4 -13 -1 -16 5
-4 5 -13 8 -21 5 -7 -3 -19 1 -26 8 -8 7 -21 12 -31 10 -10 -1 -21 4 -24 12
-4 11 -9 12 -19 3 -11 -9 -15 -8 -20 5 -3 9 -10 13 -15 10 -5 -3 -9 -1 -9 5 0
5 -11 8 -24 7 -14 -2 -27 3 -30 11 -3 8 -10 11 -16 8 -5 -3 -10 -1 -10 5 0 6
-4 9 -9 6 -4 -3 -19 4 -32 15 -13 11 -25 16 -27 10 -2 -6 -13 -2 -25 9 -11 11
-29 20 -39 20 -11 0 -17 4 -14 9 3 5 -7 14 -23 19 -16 6 -39 20 -50 31 -12 12
-24 20 -27 20 -7 -2 -41 20 -64 42 -10 9 -22 18 -27 20 -38 15 -236 206 -227
220 3 5 -3 6 -12 2 -10 -4 -15 -2 -11 3 3 6 -5 18 -19 28 -13 11 -24 22 -24
27 0 4 -16 25 -35 46 -19 21 -35 42 -35 47 0 5 -12 20 -26 33 -14 13 -24 27
-21 30 3 3 -3 14 -13 26 -11 11 -17 24 -14 29 3 4 -2 8 -10 8 -9 0 -16 9 -16
20 0 11 -3 20 -8 20 -9 0 -38 61 -34 73 1 5 -2 6 -8 2 -9 -6 -14 7 -11 27 0 5
-4 8 -10 8 -5 0 -8 4 -5 8 3 5 -4 19 -15 31 -12 12 -18 29 -15 37 3 9 1 12 -4
9 -6 -3 -10 -1 -10 4 0 6 -14 39 -30 73 -17 35 -32 70 -33 78 -2 8 -8 25 -15
36 -6 12 -8 24 -5 28 3 3 2 6 -4 6 -9 0 -24 46 -22 66 0 4 -4 10 -10 13 -6 4
-12 19 -13 34 -1 15 -6 27 -10 27 -4 0 -7 3 -7 8 1 4 1 9 -1 12 -1 3 -3 16 -6
29 -2 14 -10 31 -17 40 -9 11 -9 13 0 8 8 -5 8 1 -2 19 -8 15 -12 31 -9 36 3
4 1 8 -3 8 -8 0 -12 15 -15 58 -1 6 -5 12 -9 12 -4 0 -6 11 -4 25 1 14 -2 25
-7 25 -5 0 -7 4 -3 9 3 5 1 12 -3 15 -5 3 -8 17 -7 31 2 14 -1 25 -5 25 -5 0
-7 9 -5 20 2 11 0 20 -6 20 -5 0 -9 5 -9 11 0 5 5 7 11 3 6 -3 5 4 -3 17 -8
13 -13 33 -13 44 0 11 -4 23 -10 27 -6 5 -4 8 5 8 10 0 11 3 4 8 -7 4 -13 23
-15 42 -2 19 -5 39 -8 44 -2 6 -6 19 -7 30 -1 12 -5 41 -9 66 -10 69 -16 132
-18 167 -1 18 -6 33 -12 33 -5 0 -3 5 5 10 10 6 11 10 3 10 -7 0 -13 10 -13
23 0 75 -6 137 -15 137 -5 0 -3 5 5 10 13 9 13 10 0 10 -13 0 -13 1 0 10 8 5
10 10 4 10 -7 0 -11 25 -12 65 0 36 -3 69 -6 74 -4 5 0 12 6 14 9 4 10 6 1 6
-7 1 -10 11 -7 27 3 19 1 24 -8 18 -10 -6 -10 -4 -2 7 12 16 12 29 1 47 -5 7
-3 12 4 12 7 0 8 4 2 13 -11 14 -11 27 0 44 4 6 4 14 -1 17 -11 6 -9 97 3 115
5 10 4 12 -4 7 -13 -8 -12 29 2 51 4 6 3 14 -2 17 -13 8 -11 56 3 56 8 0 8 3
0 8 -13 9 -13 135 0 144 8 5 8 8 0 8 -11 0 -13 78 -2 96 4 6 4 14 0 18 -11 12
-9 90 3 98 6 5 5 8 -4 8 -11 0 -11 3 -1 15 9 11 9 15 1 15 -9 0 -9 5 -1 20 8
15 8 20 -1 20 -9 0 -9 3 0 14 9 10 9 16 1 21 -8 5 -8 11 1 21 9 11 9 17 0 28
-7 8 -8 17 -3 20 5 3 10 38 12 78 2 89 7 171 10 178 1 3 2 21 2 40 0 19 5 38
11 42 9 6 9 8 -1 8 -10 0 -10 5 -2 20 8 15 8 20 -2 20 -8 1 -6 6 5 14 13 10
15 15 5 18 -10 4 -10 10 0 32 8 18 8 25 1 20 -8 -4 -8 -1 -2 12 5 11 8 31 7
46 0 16 4 28 9 28 7 0 7 4 -1 12 -9 9 -7 15 6 25 9 8 11 12 5 8 -7 -3 -13 -1
-13 4 0 6 3 11 8 11 4 0 7 20 6 45 0 25 3 45 7 45 4 0 5 10 1 22 -4 16 -2 19
9 13 11 -7 12 -6 2 7 -7 8 -11 17 -8 20 5 4 20 94 24 141 1 5 5 6 10 3 5 -4 7
3 4 13 -3 10 3 54 13 97 9 44 17 85 17 92 0 6 7 12 16 12 10 0 12 3 5 8 -11 7
-12 34 -1 62 5 13 20 63 34 120 2 8 5 21 5 28 1 6 6 12 11 12 6 0 7 3 4 6 -3
4 -1 16 5 28 7 11 13 30 13 41 1 11 7 33 13 48 7 16 12 33 12 38 0 6 3 8 8 6
4 -3 8 6 9 19 4 45 6 54 14 54 4 0 10 14 14 30 4 17 11 30 16 30 5 0 8 3 8 8
-1 4 0 10 1 15 1 4 3 10 5 15 14 51 18 61 26 57 4 -3 6 3 4 14 -2 11 3 22 11
25 9 3 12 10 9 16 -3 6 1 13 10 16 11 5 13 9 6 13 -7 5 -4 15 9 29 11 11 20
27 20 35 0 8 11 30 24 50 13 19 22 38 18 41 -3 3 0 6 6 6 7 0 12 7 12 15 0 8
3 15 8 15 4 0 13 13 20 29 7 16 23 40 36 54 13 14 22 28 20 30 -2 2 5 12 16
22 11 10 20 24 20 32 0 7 5 13 10 13 6 0 14 8 17 17 4 10 16 27 28 38 12 11
24 28 28 38 4 9 12 16 19 15 7 -2 12 2 13 9 0 6 18 28 40 50 22 21 39 41 37
46 -1 4 2 7 7 7 5 0 26 17 48 38 57 54 125 107 135 105 4 -2 8 1 8 6 0 10 125
95 135 92 4 -1 15 8 26 20 13 15 19 17 19 8 1 -10 4 -9 11 4 6 9 14 15 20 12
5 -4 9 -2 9 3 0 13 56 33 66 24 4 -4 5 -2 1 3 -3 6 6 15 19 22 18 8 22 8 17 0
-3 -7 2 -4 13 5 10 9 31 20 47 23 15 4 30 12 33 17 4 6 10 5 15 -3 7 -11 9
-10 9 3 0 12 6 16 26 12 16 -3 23 -1 19 6 -3 5 1 11 9 11 9 1 19 2 24 4 4 1
21 5 37 9 17 4 37 11 45 15 8 4 25 7 38 6 12 -1 22 2 22 7 0 5 5 6 10 3 6 -3
16 -3 23 2 6 4 19 8 27 8 8 0 20 3 25 6 6 3 19 5 30 5 11 -1 23 4 27 9 5 6 8
5 8 -3 0 -10 5 -10 21 -2 11 7 27 9 35 6 8 -3 14 -2 14 2 0 4 18 7 40 7 22 0
40 4 40 8 0 5 7 4 15 -3 10 -9 15 -9 15 -1 0 13 22 10 32 -4 5 -6 8 -6 8 1 0
8 46 11 150 11 107 0 148 -3 143 -11 -4 -6 0 -5 9 2 12 9 18 10 23 2 5 -8 11
-8 21 1 8 6 14 7 14 2 0 -5 26 -10 58 -12 31 -1 67 -3 80 -4 12 0 22 -4 22 -8
0 -4 8 -6 18 -5 9 2 23 -4 30 -13 8 -9 11 -10 7 -4 -8 16 40 12 74 -6 18 -10
22 -10 16 0 -6 8 -4 10 6 3 8 -5 25 -10 39 -12 13 -2 27 -7 30 -10 3 -4 15 -7
28 -6 12 1 22 -3 22 -7 0 -5 11 -9 25 -9 14 0 25 -4 25 -8 0 -4 10 -9 22 -9
24 -2 31 -5 111 -44 27 -13 56 -24 65 -26 9 -1 18 -7 20 -13 2 -5 8 -8 13 -4
5 3 9 0 9 -6 0 -6 5 -8 10 -5 6 3 10 1 10 -5 0 -7 6 -10 13 -7 6 2 19 -3 27
-12 8 -9 21 -17 28 -19 23 -4 62 -34 57 -42 -3 -5 4 -6 14 -3 13 3 23 -2 30
-16 7 -12 17 -21 24 -21 7 0 23 -9 35 -20 12 -12 22 -17 22 -13 0 4 5 0 11 -9
5 -10 17 -18 25 -18 8 0 12 -4 9 -10 -3 -5 0 -10 7 -10 15 0 78 -57 78 -71 0
-5 3 -8 8 -8 19 3 33 -2 27 -11 -3 -5 1 -10 9 -10 9 0 16 -7 16 -15 0 -8 6
-15 14 -15 8 0 18 -9 21 -20 4 -11 10 -18 15 -15 5 3 11 -4 15 -15 3 -11 13
-20 21 -20 8 0 14 -4 14 -9 0 -5 22 -32 49 -60 27 -27 46 -53 43 -56 -3 -3 0
-5 6 -5 7 0 12 -6 12 -14 0 -8 7 -16 15 -20 8 -3 15 -11 15 -18 0 -8 9 -20 20
-28 11 -8 20 -18 20 -23 0 -5 11 -23 25 -39 14 -16 22 -35 19 -40 -4 -6 -2 -8
4 -4 6 3 16 -7 24 -24 7 -16 16 -30 20 -30 5 0 8 -7 8 -15 0 -8 3 -15 8 -15 4
0 18 -23 31 -50 14 -28 29 -50 33 -50 4 0 8 -9 8 -20 0 -11 3 -20 8 -20 4 0
13 -9 20 -21 10 -15 10 -19 1 -14 -14 9 -5 -9 17 -35 7 -8 14 -22 16 -30 2 -8
9 -21 16 -28 7 -8 10 -18 7 -23 -4 -5 -3 -9 2 -9 8 0 53 -107 52 -124 0 -5 4
-12 11 -16 6 -4 12 -17 13 -28 1 -12 4 -22 8 -22 4 0 10 -7 13 -16 4 -10 2
-13 -7 -8 -7 5 -6 1 3 -10 8 -10 15 -23 16 -30 4 -27 9 -41 16 -46 4 -3 9 -17
11 -30 3 -14 12 -42 20 -62 8 -20 13 -39 9 -42 -3 -3 1 -6 9 -6 11 0 11 -2 -1
-10 -10 -6 -11 -10 -3 -10 7 0 12 -3 12 -7 -1 -5 0 -10 1 -13 3 -9 10 -44 12
-62 1 -10 6 -18 10 -18 4 0 7 -3 7 -7 -1 -5 0 -10 1 -13 2 -3 4 -18 5 -35 1
-16 5 -38 9 -47 3 -10 9 -26 12 -35 4 -10 8 -13 10 -8 3 6 76 9 197 8 l193 -1
-1 188 c0 113 3 186 9 183 5 -4 6 0 1 8 -12 18 -13 559 -1 552 5 -4 6 0 1 7
-12 19 -13 240 -1 233 5 -4 6 -1 1 7 -12 19 -13 240 -1 233 5 -4 6 -1 1 8 -12
19 -13 431 -2 447 5 6 6 12 1 12 -8 0 -11 78 -4 105 1 6 1 15 0 20 -2 6 -4 71
-5 145 -1 74 -3 138 -4 141 -1 5 -111 3 -142 -4 -10 -1 -25 -9 -35 -17 -13
-11 -16 -11 -10 -2 7 11 4 11 -15 0 -13 -7 -27 -17 -31 -23 -4 -5 -8 -7 -8 -3
0 9 -41 -25 -76 -62 -25 -26 -74 -118 -74 -138 0 -7 -5 -12 -11 -12 -8 0 -8
-4 0 -14 9 -11 9 -15 0 -18 -10 -3 -15 -32 -21 -115 -1 -7 -5 -13 -9 -13 -5 0
-4 -11 1 -25 5 -14 6 -25 1 -25 -4 0 -7 -12 -5 -27 2 -25 1 -26 -10 -10 -7 9
-18 17 -24 17 -6 0 -34 14 -62 30 -28 17 -57 30 -65 30 -8 0 -15 5 -15 10 0 6
-9 10 -20 10 -11 0 -20 4 -20 9 0 8 -22 18 -60 26 -8 2 -19 10 -25 18 -5 7
-15 12 -22 10 -6 -2 -14 1 -18 6 -3 6 -14 11 -24 11 -10 0 -24 7 -31 15 -7 9
-15 13 -17 11 -3 -2 -32 9 -66 25 -34 16 -68 29 -74 29 -7 0 -13 4 -13 10 0 5
-3 9 -7 8 -9 -2 -46 9 -88 27 -16 7 -58 24 -92 36 -34 13 -60 26 -58 30 3 3
-7 4 -20 1 -14 -2 -25 0 -25 7 0 5 -6 8 -14 5 -8 -3 -17 -1 -21 5 -3 6 -17 11
-31 11 -13 0 -24 4 -24 8 0 4 -12 9 -27 10 -15 1 -29 6 -32 11 -3 4 -16 7 -29
6 -13 -1 -27 5 -32 14 -7 12 -9 12 -10 2 0 -10 -3 -11 -13 -2 -8 6 -17 8 -20
5 -3 -3 -12 -2 -19 2 -7 5 -24 8 -38 9 -23 0 -24 3 -25 68 0 38 4 67 10 67 7
0 7 3 0 8 -6 4 -10 129 -10 337 0 208 4 333 10 337 7 5 7 8 0 8 -7 0 -10 192
-10 555 0 363 3 555 10 555 7 0 7 3 0 8 -5 4 -10 30 -10 57 0 28 5 53 10 57 7
5 7 8 0 8 -5 0 -10 20 -10 45 0 25 4 45 9 45 5 0 4 6 -2 13 -7 8 -7 18 -2 27
5 8 6 18 3 24 -10 16 -9 66 2 66 7 0 7 3 0 8 -10 7 -15 91 -5 93 34 6 240 3
254 -4 10 -5 16 -5 13 0 -3 4 17 8 44 8 27 0 49 -3 49 -8 0 -4 5 -5 12 -1 17
11 1349 11 1355 1 3 -4 11 -3 18 3 10 8 15 8 20 0 5 -8 11 -8 21 1 11 9 15 8
19 -3 4 -10 15 -13 31 -10 14 2 24 0 24 -7 0 -7 8 -11 18 -10 36 3 53 -1 46
-13 -4 -6 -3 -8 3 -5 12 7 93 -23 159 -60 23 -12 45 -19 49 -15 5 4 5 -1 2
-10 -4 -12 -2 -15 8 -11 8 3 18 -2 21 -11 3 -9 10 -14 14 -11 5 3 15 -2 23
-10 9 -8 18 -15 22 -15 13 0 34 -28 27 -35 -4 -5 -2 -5 4 -2 5 3 23 -6 40 -19
16 -14 41 -35 56 -47 15 -12 28 -28 28 -35 0 -7 3 -11 8 -9 4 2 17 -6 30 -19
12 -13 21 -24 18 -24 -2 0 13 -17 35 -38 21 -22 36 -42 32 -45 -3 -4 1 -7 11
-7 9 0 15 -4 12 -9 -3 -5 1 -12 10 -15 9 -4 14 -9 12 -12 -3 -3 7 -19 23 -37
16 -17 29 -36 29 -41 0 -5 10 -17 22 -27 11 -11 16 -19 9 -19 -7 0 -2 -10 11
-22 13 -13 24 -28 25 -35 1 -6 14 -28 28 -49 14 -20 25 -42 25 -49 0 -6 9 -20
20 -30 11 -10 20 -23 20 -30 0 -6 11 -33 24 -61 24 -50 57 -123 71 -159 5 -11
7 -26 6 -32 -1 -7 3 -13 9 -13 5 0 10 -9 10 -19 0 -11 5 -23 10 -26 6 -3 10
-17 10 -31 0 -13 4 -24 9 -24 5 0 12 -7 15 -16 3 -9 2 -12 -5 -8 -7 4 -7 0 0
-12 14 -27 24 -57 25 -74 0 -8 6 -21 13 -28 7 -7 10 -19 7 -27 -4 -8 -2 -15 3
-15 7 0 13 -22 16 -67 0 -7 3 -13 7 -13 4 0 13 -28 21 -62 17 -78 15 -70 21
-88 24 -72 26 -80 15 -80 -8 0 -7 -4 2 -9 8 -5 11 -16 8 -25 -4 -9 -2 -16 3
-16 5 0 7 -9 5 -20 -2 -11 1 -20 7 -20 5 0 8 -7 5 -15 -4 -8 -2 -17 4 -20 5
-4 7 -11 3 -16 -7 -12 15 -69 27 -69 5 0 9 5 9 10 0 7 7 8 18 2 21 -9 124 -8
140 2 7 4 12 3 12 -2 0 -10 42 -8 59 3 6 3 11 2 11 -3 0 -5 10 -8 23 -6 12 1
27 3 34 3 11 1 13 144 14 1031 0 167 0 328 0 340 0 8 0 96 0 195 1 99 1 187 0
195 0 8 0 120 -1 248 l0 232 -2925 0 c-1608 0 -2926 -3 -2928 -7z"/>
<path d="M4156 6922 c-3 -5 1 -9 9 -9 8 0 12 4 9 9 -3 4 -7 8 -9 8 -2 0 -6 -4
-9 -8z"/>
<path d="M4648 6409 c-5 -3 -21 -5 -36 -3 -14 1 -33 -1 -42 -6 -9 -5 -23 -4
-32 1 -9 5 -19 5 -22 0 -3 -4 -17 -7 -31 -6 -14 2 -27 0 -29 -4 -3 -4 -19 -6
-35 -5 -17 1 -31 -1 -31 -4 0 -4 -16 -8 -37 -9 -20 -1 -39 -6 -42 -10 -3 -4
-15 -8 -26 -9 -11 0 -31 -4 -45 -8 l-25 -7 1 -205 c0 -113 -3 -207 -8 -210 -4
-3 -4 -13 1 -22 7 -15 9 -768 1 -782 -1 -3 -1 -9 0 -15 8 -28 7 -136 -1 -141
-5 -3 -6 -11 -2 -17 11 -16 11 -777 1 -783 -5 -3 -5 -11 -1 -17 11 -18 13
-136 2 -143 -5 -3 -5 -12 0 -22 4 -9 8 -183 7 -387 l-1 -370 -475 0 -475 0 0
-177 c-1 -119 2 -178 9 -178 90 -5 5817 -1 5824 3 5 4 9 441 9 1122 l0 1115
-21 1 c-12 1 -85 2 -164 3 -104 1 -141 -2 -138 -11 3 -6 2 -14 -2 -18 -4 -4
-8 -11 -8 -16 -1 -5 -2 -10 -4 -11 -1 -2 -3 -12 -5 -23 -2 -11 -13 -56 -25
-100 -12 -44 -24 -89 -25 -100 -2 -11 -4 -21 -5 -22 -2 -2 -3 -6 -4 -10 -2 -5
-9 -28 -16 -53 -7 -25 -14 -47 -15 -50 -1 -3 -7 -25 -14 -50 -6 -25 -15 -52
-18 -60 -3 -8 -5 -18 -5 -22 1 -5 -2 -8 -8 -8 -5 0 -7 -6 -4 -14 3 -8 1 -17
-5 -21 -6 -3 -11 -17 -11 -31 0 -13 -4 -24 -8 -24 -5 0 -9 -6 -10 -12 -1 -13
-9 -48 -12 -58 -1 -3 -2 -8 -1 -12 0 -5 -4 -8 -10 -8 -5 0 -7 -4 -4 -10 3 -5
1 -10 -6 -10 -7 0 -10 -3 -6 -6 3 -3 -3 -25 -13 -49 -10 -24 -16 -46 -13 -49
4 -3 1 -6 -6 -6 -7 0 -9 -5 -6 -10 3 -6 -1 -13 -9 -16 -9 -3 -14 -9 -11 -13 2
-4 -2 -19 -10 -34 -7 -14 -11 -28 -7 -31 3 -3 0 -6 -6 -6 -7 0 -12 -7 -12 -16
0 -9 -9 -28 -20 -44 -11 -15 -17 -30 -13 -34 3 -3 1 -6 -6 -6 -7 0 -10 -4 -6
-9 3 -6 -3 -14 -12 -20 -10 -6 -15 -11 -10 -11 7 0 -20 -60 -32 -70 -3 -3 -17
-26 -30 -52 -13 -26 -28 -45 -33 -42 -5 3 -7 2 -6 -3 3 -12 -27 -64 -52 -90
-11 -13 -18 -23 -15 -23 3 0 -6 -12 -19 -27 -14 -16 -34 -39 -46 -53 -31 -37
-140 -149 -140 -144 0 3 -11 -5 -24 -18 -13 -13 -33 -30 -46 -38 -12 -8 -28
-20 -34 -26 -13 -12 -48 -28 -58 -26 -5 1 -8 -3 -8 -8 0 -6 -6 -10 -14 -10 -8
0 -16 -5 -18 -11 -2 -5 -10 -11 -18 -13 -8 -1 -37 -12 -64 -25 -27 -12 -58
-25 -70 -27 -11 -3 -25 -6 -31 -7 -5 -2 -16 -6 -22 -10 -7 -5 -17 -5 -23 -2
-5 3 -10 1 -10 -5 0 -7 -6 -10 -14 -7 -8 3 -17 3 -20 -1 -7 -7 -25 -10 -72
-16 -17 -1 -36 -6 -43 -10 -6 -4 -11 -1 -11 6 0 10 -2 10 -8 1 -4 -7 -28 -15
-52 -18 -24 -3 -61 -10 -82 -14 -21 -5 -40 -6 -42 -2 -2 3 -38 4 -80 1 -42 -3
-76 -1 -76 4 0 5 -6 3 -13 -3 -8 -6 -16 -9 -18 -6 -3 2 -25 4 -49 5 -45 1
-331 2 -360 1 -8 0 -116 0 -240 0 -124 0 -229 0 -235 0 -5 0 -80 0 -165 -1
-85 0 -191 -1 -235 0 l-80 0 0 100 c0 60 4 100 10 100 7 0 7 3 0 8 -7 4 -10
369 -10 1057 0 688 3 1053 10 1057 7 5 7 8 0 8 -6 0 -10 111 -9 315 0 172 -3
312 -8 309 -4 -3 -8 -1 -8 5 0 10 -38 27 -52 23 -5 -1 -8 2 -8 7 0 5 -16 15
-34 22 -19 7 -33 15 -31 19 2 3 -6 7 -18 7 -12 1 -23 7 -25 13 -2 5 -8 7 -13
4 -6 -3 -15 -2 -22 3 -7 6 -25 15 -42 21 -16 6 -43 17 -60 23 -30 12 -39 15
-63 17 -7 1 -11 6 -8 11 3 4 -8 7 -24 5 -16 -2 -32 1 -35 6 -3 5 -14 7 -25 5
-11 -2 -22 0 -25 6 -4 5 -22 9 -41 9 -19 0 -34 4 -34 9 0 5 -11 8 -24 5 -14
-2 -27 0 -30 5 -3 4 -16 6 -30 4 -13 -3 -34 0 -46 7 -18 10 -21 9 -15 -1 6 -8
4 -10 -5 -4 -7 4 -39 9 -71 11 -32 1 -63 5 -68 9 -6 3 -11 2 -11 -4 0 -6 -6
-8 -13 -5 -20 7 -138 10 -149 3z"/>
</g>
</svg>
